<mxfile host="app.diagrams.net" modified="2023-03-23T07:27:34.077Z" agent="5.0 (X11; Linux x86_64) AppleWebKit/537.36 (KHTML, like Gecko) Chrome/112.0.0.0 Safari/537.36 Edg/112.0.0.0" etag="WQFu6muGW8pE5uUWVeud" version="21.0.10" type="github">
  <diagram name="Страница 1" id="dRjgoa4rpJ9UiCOQdd4B">
    <mxGraphModel dx="658" dy="409" grid="1" gridSize="10" guides="1" tooltips="1" connect="1" arrows="1" fold="1" page="1" pageScale="1" pageWidth="827" pageHeight="1169" math="0" shadow="0">
      <root>
        <mxCell id="0" />
        <mxCell id="1" parent="0" />
        <mxCell id="6dEHQS1TqkIKJZpqLqtC-1" value="" style="rounded=0;whiteSpace=wrap;html=1;" vertex="1" parent="1">
          <mxGeometry x="100" y="90" width="180" height="200" as="geometry" />
        </mxCell>
        <mxCell id="6dEHQS1TqkIKJZpqLqtC-7" value="MyTcpServer" style="text;html=1;strokeColor=none;fillColor=none;align=center;verticalAlign=middle;whiteSpace=wrap;rounded=0;" vertex="1" parent="1">
          <mxGeometry x="120" y="90" width="140" height="30" as="geometry" />
        </mxCell>
        <mxCell id="6dEHQS1TqkIKJZpqLqtC-8" value="&lt;font style=&quot;font-size: 9px;&quot;&gt;+MyTcpServer(QObject *parent = nullptr)&lt;/font&gt;" style="text;html=1;strokeColor=none;fillColor=none;align=left;verticalAlign=middle;whiteSpace=wrap;rounded=0;" vertex="1" parent="1">
          <mxGeometry x="100" y="180" width="180" height="20" as="geometry" />
        </mxCell>
        <mxCell id="6dEHQS1TqkIKJZpqLqtC-9" value="&lt;font style=&quot;font-size: 9px;&quot;&gt;-tcpSockets: QVector&amp;nbsp;&amp;lt;QTcpSocket*&amp;gt;&amp;nbsp;&lt;/font&gt;" style="text;html=1;strokeColor=none;fillColor=none;align=left;verticalAlign=middle;whiteSpace=wrap;rounded=0;" vertex="1" parent="1">
          <mxGeometry x="100" y="120" width="180" height="20" as="geometry" />
        </mxCell>
        <mxCell id="6dEHQS1TqkIKJZpqLqtC-10" value="" style="endArrow=none;html=1;rounded=0;exitX=0;exitY=0;exitDx=0;exitDy=0;" edge="1" parent="1" source="6dEHQS1TqkIKJZpqLqtC-9">
          <mxGeometry width="50" height="50" relative="1" as="geometry">
            <mxPoint x="150" y="70" as="sourcePoint" />
            <mxPoint x="280" y="120" as="targetPoint" />
          </mxGeometry>
        </mxCell>
        <mxCell id="6dEHQS1TqkIKJZpqLqtC-12" value="&lt;font style=&quot;font-size: 9px;&quot;&gt;-tcpServer:&amp;nbsp;QTcpServer*&lt;/font&gt;" style="text;html=1;strokeColor=none;fillColor=none;align=left;verticalAlign=middle;whiteSpace=wrap;rounded=0;" vertex="1" parent="1">
          <mxGeometry x="100" y="140" width="180" height="20" as="geometry" />
        </mxCell>
        <mxCell id="6dEHQS1TqkIKJZpqLqtC-13" value="&lt;div style=&quot;&quot;&gt;&lt;font style=&quot;background-color: initial; font-size: 9px;&quot;&gt;-server_status&lt;/font&gt;&lt;span style=&quot;background-color: initial; font-size: 9px;&quot;&gt;: int&lt;/span&gt;&lt;/div&gt;" style="text;html=1;strokeColor=none;fillColor=none;align=left;verticalAlign=middle;whiteSpace=wrap;rounded=0;" vertex="1" parent="1">
          <mxGeometry x="100" y="160" width="180" height="20" as="geometry" />
        </mxCell>
        <mxCell id="6dEHQS1TqkIKJZpqLqtC-14" value="" style="endArrow=none;html=1;rounded=0;exitX=0;exitY=0.124;exitDx=0;exitDy=0;exitPerimeter=0;" edge="1" parent="1">
          <mxGeometry width="50" height="50" relative="1" as="geometry">
            <mxPoint x="100" y="180" as="sourcePoint" />
            <mxPoint x="280" y="180" as="targetPoint" />
          </mxGeometry>
        </mxCell>
        <mxCell id="6dEHQS1TqkIKJZpqLqtC-15" value="&lt;font style=&quot;font-size: 9px;&quot;&gt;+~MyTcpServer(QObject *parent = nullptr)&lt;/font&gt;" style="text;html=1;strokeColor=none;fillColor=none;align=left;verticalAlign=middle;whiteSpace=wrap;rounded=0;" vertex="1" parent="1">
          <mxGeometry x="100" y="200" width="180" height="20" as="geometry" />
        </mxCell>
        <mxCell id="6dEHQS1TqkIKJZpqLqtC-16" value="&lt;font style=&quot;font-size: 9px;&quot;&gt;-slotNewConnection(): void&lt;/font&gt;" style="text;html=1;strokeColor=none;fillColor=none;align=left;verticalAlign=middle;whiteSpace=wrap;rounded=0;" vertex="1" parent="1">
          <mxGeometry x="100" y="220" width="180" height="20" as="geometry" />
        </mxCell>
        <mxCell id="6dEHQS1TqkIKJZpqLqtC-17" value="&lt;font style=&quot;font-size: 9px;&quot;&gt;-slotNewConnection(): void&lt;/font&gt;" style="text;html=1;strokeColor=none;fillColor=none;align=left;verticalAlign=middle;whiteSpace=wrap;rounded=0;" vertex="1" parent="1">
          <mxGeometry x="100" y="240" width="180" height="20" as="geometry" />
        </mxCell>
        <mxCell id="6dEHQS1TqkIKJZpqLqtC-18" value="&lt;font style=&quot;font-size: 9px;&quot;&gt;-slotServerRead(): void&lt;/font&gt;" style="text;html=1;strokeColor=none;fillColor=none;align=left;verticalAlign=middle;whiteSpace=wrap;rounded=0;" vertex="1" parent="1">
          <mxGeometry x="100" y="260" width="180" height="20" as="geometry" />
        </mxCell>
        <mxCell id="6dEHQS1TqkIKJZpqLqtC-19" value="" style="rounded=0;whiteSpace=wrap;html=1;" vertex="1" parent="1">
          <mxGeometry x="370" y="90" width="180" height="200" as="geometry" />
        </mxCell>
        <mxCell id="6dEHQS1TqkIKJZpqLqtC-20" value="Functions" style="text;html=1;strokeColor=none;fillColor=none;align=center;verticalAlign=middle;whiteSpace=wrap;rounded=0;" vertex="1" parent="1">
          <mxGeometry x="390" y="90" width="140" height="30" as="geometry" />
        </mxCell>
        <mxCell id="6dEHQS1TqkIKJZpqLqtC-23" value="" style="endArrow=none;html=1;rounded=0;exitX=0;exitY=0;exitDx=0;exitDy=0;" edge="1" parent="1">
          <mxGeometry width="50" height="50" relative="1" as="geometry">
            <mxPoint x="369.99999999999955" y="120" as="sourcePoint" />
            <mxPoint x="550" y="120" as="targetPoint" />
          </mxGeometry>
        </mxCell>
        <mxCell id="6dEHQS1TqkIKJZpqLqtC-28" value="&lt;font style=&quot;font-size: 9px;&quot;&gt;-slotNewConnection(): void&lt;/font&gt;" style="text;html=1;strokeColor=none;fillColor=none;align=left;verticalAlign=middle;whiteSpace=wrap;rounded=0;" vertex="1" parent="1">
          <mxGeometry x="370" y="120" width="180" height="20" as="geometry" />
        </mxCell>
        <mxCell id="6dEHQS1TqkIKJZpqLqtC-31" value="&lt;font style=&quot;font-size: 9px;&quot;&gt;-slotNewConnection(): void&lt;/font&gt;" style="text;html=1;strokeColor=none;fillColor=none;align=left;verticalAlign=middle;whiteSpace=wrap;rounded=0;" vertex="1" parent="1">
          <mxGeometry x="370" y="140" width="180" height="20" as="geometry" />
        </mxCell>
        <mxCell id="6dEHQS1TqkIKJZpqLqtC-32" value="&lt;font style=&quot;font-size: 9px;&quot;&gt;-slotNewConnection(): void&lt;/font&gt;" style="text;html=1;strokeColor=none;fillColor=none;align=left;verticalAlign=middle;whiteSpace=wrap;rounded=0;" vertex="1" parent="1">
          <mxGeometry x="370" y="160" width="180" height="20" as="geometry" />
        </mxCell>
        <mxCell id="6dEHQS1TqkIKJZpqLqtC-33" value="&lt;font style=&quot;font-size: 9px;&quot;&gt;-slotNewConnection(): void&lt;/font&gt;" style="text;html=1;strokeColor=none;fillColor=none;align=left;verticalAlign=middle;whiteSpace=wrap;rounded=0;" vertex="1" parent="1">
          <mxGeometry x="370" y="180" width="180" height="20" as="geometry" />
        </mxCell>
        <mxCell id="6dEHQS1TqkIKJZpqLqtC-34" value="&lt;font style=&quot;font-size: 9px;&quot;&gt;-slotNewConnection(): void&lt;/font&gt;" style="text;html=1;strokeColor=none;fillColor=none;align=left;verticalAlign=middle;whiteSpace=wrap;rounded=0;" vertex="1" parent="1">
          <mxGeometry x="370" y="200" width="180" height="20" as="geometry" />
        </mxCell>
      </root>
    </mxGraphModel>
  </diagram>
</mxfile>
